<?xml version="1.0" encoding="utf-8" standalone="no"?>
<!DOCTYPE svg PUBLIC "-//W3C//DTD SVG 1.1//EN"
  "http://www.w3.org/Graphics/SVG/1.1/DTD/svg11.dtd">
<svg xmlns:xlink="http://www.w3.org/1999/xlink" width="357.12pt" height="266.112pt" viewBox="0 0 357.12 266.112" xmlns="http://www.w3.org/2000/svg" version="1.1">
 <metadata>
  <rdf:RDF xmlns:dc="http://purl.org/dc/elements/1.1/" xmlns:cc="http://creativecommons.org/ns#" xmlns:rdf="http://www.w3.org/1999/02/22-rdf-syntax-ns#">
   <cc:Work>
    <dc:type rdf:resource="http://purl.org/dc/dcmitype/StillImage"/>
    <dc:date>2024-04-01T15:35:20.363250</dc:date>
    <dc:format>image/svg+xml</dc:format>
    <dc:creator>
     <cc:Agent>
      <dc:title>Matplotlib v3.7.5, https://matplotlib.org/</dc:title>
     </cc:Agent>
    </dc:creator>
   </cc:Work>
  </rdf:RDF>
 </metadata>
 <defs>
  <style type="text/css">*{stroke-linejoin: round; stroke-linecap: butt}</style>
 </defs>
 <g id="figure_1">
  <g id="patch_1">
   <path d="M 0 266.112 
L 357.12 266.112 
L 357.12 0 
L 0 0 
z
" style="fill: #ffffff"/>
  </g>
  <g id="axes_1">
   <g id="PolyCollection_1">
    <defs>
     <path id="m511bb5cf7a" d="M 159.861808 -12.096 
L 159.861808 -254.016 
L 160.353709 -254.016 
L 160.84561 -254.016 
L 161.33751 -254.016 
L 161.829411 -254.016 
L 162.321312 -254.016 
L 162.813213 -254.016 
L 163.305114 -254.016 
L 163.797015 -254.016 
L 164.288915 -254.016 
L 164.780816 -254.016 
L 165.272717 -254.016 
L 165.764618 -254.016 
L 166.256519 -254.016 
L 166.74842 -254.016 
L 167.24032 -254.016 
L 167.732221 -254.016 
L 168.224122 -254.016 
L 168.716023 -254.016 
L 169.207924 -254.016 
L 169.699824 -254.016 
L 170.191725 -254.016 
L 170.683626 -254.016 
L 171.175527 -254.016 
L 171.667428 -254.016 
L 172.159329 -254.016 
L 172.651229 -254.016 
L 173.14313 -254.016 
L 173.635031 -254.016 
L 174.126932 -254.016 
L 174.618833 -254.016 
L 175.110734 -254.016 
L 175.602634 -254.016 
L 176.094535 -254.016 
L 176.586436 -254.016 
L 177.078337 -254.016 
L 177.570238 -254.016 
L 178.062139 -254.016 
L 178.554039 -254.016 
L 179.04594 -254.016 
L 179.537841 -254.016 
L 180.029742 -254.016 
L 180.521643 -254.016 
L 181.013543 -254.016 
L 181.505444 -254.016 
L 181.997345 -254.016 
L 182.489246 -254.016 
L 182.981147 -254.016 
L 183.473048 -254.016 
L 183.964948 -254.016 
L 184.456849 -254.016 
L 184.94875 -254.016 
L 185.440651 -254.016 
L 185.932552 -254.016 
L 186.424453 -254.016 
L 186.916353 -254.016 
L 187.408254 -254.016 
L 187.900155 -254.016 
L 188.392056 -254.016 
L 188.883957 -254.016 
L 189.375858 -254.016 
L 189.867758 -254.016 
L 190.359659 -254.016 
L 190.85156 -254.016 
L 191.343461 -254.016 
L 191.835362 -254.016 
L 192.327262 -254.016 
L 192.819163 -254.016 
L 193.311064 -254.016 
L 193.802965 -254.016 
L 194.294866 -254.016 
L 194.786767 -254.016 
L 195.278667 -254.016 
L 195.770568 -254.016 
L 196.262469 -254.016 
L 196.75437 -254.016 
L 197.246271 -254.016 
L 197.738172 -254.016 
L 198.230072 -254.016 
L 198.721973 -254.016 
L 199.213874 -254.016 
L 199.705775 -254.016 
L 200.197676 -254.016 
L 200.689577 -254.016 
L 201.181477 -254.016 
L 201.673378 -254.016 
L 202.165279 -254.016 
L 202.65718 -254.016 
L 203.149081 -254.016 
L 203.640981 -254.016 
L 204.132882 -254.016 
L 204.624783 -254.016 
L 205.116684 -254.016 
L 205.608585 -254.016 
L 206.100486 -254.016 
L 206.592386 -254.016 
L 207.084287 -254.016 
L 207.576188 -254.016 
L 208.068089 -254.016 
L 208.55999 -254.016 
L 208.55999 -12.096 
L 208.55999 -12.096 
L 208.068089 -12.096 
L 207.576188 -12.096 
L 207.084287 -12.096 
L 206.592386 -12.096 
L 206.100486 -12.096 
L 205.608585 -12.096 
L 205.116684 -12.096 
L 204.624783 -12.096 
L 204.132882 -12.096 
L 203.640981 -12.096 
L 203.149081 -12.096 
L 202.65718 -12.096 
L 202.165279 -12.096 
L 201.673378 -12.096 
L 201.181477 -12.096 
L 200.689577 -12.096 
L 200.197676 -12.096 
L 199.705775 -12.096 
L 199.213874 -12.096 
L 198.721973 -12.096 
L 198.230072 -12.096 
L 197.738172 -12.096 
L 197.246271 -12.096 
L 196.75437 -12.096 
L 196.262469 -12.096 
L 195.770568 -12.096 
L 195.278667 -12.096 
L 194.786767 -12.096 
L 194.294866 -12.096 
L 193.802965 -12.096 
L 193.311064 -12.096 
L 192.819163 -12.096 
L 192.327262 -12.096 
L 191.835362 -12.096 
L 191.343461 -12.096 
L 190.85156 -12.096 
L 190.359659 -12.096 
L 189.867758 -12.096 
L 189.375858 -12.096 
L 188.883957 -12.096 
L 188.392056 -12.096 
L 187.900155 -12.096 
L 187.408254 -12.096 
L 186.916353 -12.096 
L 186.424453 -12.096 
L 185.932552 -12.096 
L 185.440651 -12.096 
L 184.94875 -12.096 
L 184.456849 -12.096 
L 183.964948 -12.096 
L 183.473048 -12.096 
L 182.981147 -12.096 
L 182.489246 -12.096 
L 181.997345 -12.096 
L 181.505444 -12.096 
L 181.013543 -12.096 
L 180.521643 -12.096 
L 180.029742 -12.096 
L 179.537841 -12.096 
L 179.04594 -12.096 
L 178.554039 -12.096 
L 178.062139 -12.096 
L 177.570238 -12.096 
L 177.078337 -12.096 
L 176.586436 -12.096 
L 176.094535 -12.096 
L 175.602634 -12.096 
L 175.110734 -12.096 
L 174.618833 -12.096 
L 174.126932 -12.096 
L 173.635031 -12.096 
L 173.14313 -12.096 
L 172.651229 -12.096 
L 172.159329 -12.096 
L 171.667428 -12.096 
L 171.175527 -12.096 
L 170.683626 -12.096 
L 170.191725 -12.096 
L 169.699824 -12.096 
L 169.207924 -12.096 
L 168.716023 -12.096 
L 168.224122 -12.096 
L 167.732221 -12.096 
L 167.24032 -12.096 
L 166.74842 -12.096 
L 166.256519 -12.096 
L 165.764618 -12.096 
L 165.272717 -12.096 
L 164.780816 -12.096 
L 164.288915 -12.096 
L 163.797015 -12.096 
L 163.305114 -12.096 
L 162.813213 -12.096 
L 162.321312 -12.096 
L 161.829411 -12.096 
L 161.33751 -12.096 
L 160.84561 -12.096 
L 160.353709 -12.096 
L 159.861808 -12.096 
z
" style="stroke: #ffa500; stroke-opacity: 0.5"/>
    </defs>
    <g clip-path="url(#p1af9c525e6)">
     <use xlink:href="#m511bb5cf7a" x="0" y="266.112" style="fill: #ffa500; fill-opacity: 0.5; stroke: #ffa500; stroke-opacity: 0.5"/>
    </g>
   </g>
   <g id="line2d_1">
    <path d="M 16.232727 236.216521 
L 25.332154 234.104822 
L 33.781622 231.920247 
L 41.90611 229.593972 
L 49.705618 227.130648 
L 57.180147 224.537131 
L 64.329697 221.82259 
L 71.154267 218.998573 
L 77.653857 216.079036 
L 84.153448 212.916086 
L 90.328059 209.667358 
L 96.50267 206.161834 
L 97.477609 205.680408 
L 103.652219 209.221198 
L 109.82683 212.50261 
L 116.326421 215.69738 
L 122.826011 218.646288 
L 129.650581 221.498715 
L 136.800131 224.240566 
L 144.27466 226.860174 
L 152.074169 229.34828 
L 160.198657 231.697958 
L 168.648124 233.90451 
L 177.422572 235.965323 
L 186.846978 237.944186 
L 196.596364 239.763292 
L 206.995708 241.477313 
L 218.045012 243.073189 
L 230.069255 244.579978 
L 243.068436 245.97644 
L 257.042555 247.248023 
L 272.316593 248.40901 
L 289.215528 249.462911 
L 307.739361 250.392003 
L 328.86303 251.222438 
L 340.887273 251.607102 
L 340.887273 251.607102 
" clip-path="url(#p1af9c525e6)" style="fill: none; stroke: #1f77b4; stroke-width: 1.5; stroke-linecap: square"/>
   </g>
   <g id="line2d_2">
    <path d="M 16.232727 254.005017 
L 58.480066 253.86774 
L 75.054021 253.604427 
L 85.778346 253.219166 
L 93.577854 252.727638 
L 99.752465 252.131331 
L 104.952138 251.419738 
L 109.501851 250.579846 
L 113.401605 249.646743 
L 116.97638 248.570371 
L 120.226175 247.363362 
L 123.150991 246.049911 
L 126.075807 244.477141 
L 128.675643 242.820252 
L 131.275479 240.875564 
L 133.550336 238.898783 
L 135.825192 236.624624 
L 138.100049 234.008352 
L 140.049926 231.45473 
L 141.999803 228.575183 
L 143.949681 225.328113 
L 145.899558 221.666613 
L 147.849435 217.537786 
L 149.799312 212.881988 
L 151.749189 207.63196 
L 153.699066 201.711858 
L 155.648943 195.036161 
L 157.598821 187.508428 
L 159.548698 179.019914 
L 161.498575 169.447992 
L 163.448452 158.654383 
L 165.398329 146.483161 
L 167.348206 132.758498 
L 169.298084 117.282124 
L 171.247961 99.830466 
L 173.197838 80.151413 
L 175.147715 57.960676 
L 177.097592 32.937686 
L 178.39751 14.505542 
L 178.72249 14.505542 
L 180.672367 41.614795 
L 182.622244 65.655658 
L 184.572121 86.975429 
L 186.521998 105.882099 
L 188.471876 122.648796 
L 190.421753 137.517737 
L 192.37163 150.70372 
L 194.321507 162.397234 
L 196.271384 172.767204 
L 198.221261 181.963438 
L 200.171138 190.118786 
L 202.121016 197.351062 
L 204.070893 203.764745 
L 206.02077 209.452488 
L 207.970647 214.496458 
L 209.920524 218.969521 
L 211.870401 222.936295 
L 213.820278 226.454085 
L 215.770156 229.573711 
L 218.045012 232.769872 
L 220.319869 235.548092 
L 222.594726 237.963022 
L 224.869582 240.062167 
L 227.144439 241.88682 
L 229.744275 243.68185 
L 232.344111 245.211229 
L 235.268927 246.662962 
L 238.193743 247.875333 
L 241.443538 248.989453 
L 245.018313 249.98299 
L 248.918067 250.844284 
L 253.467781 251.61954 
L 258.667453 252.276371 
L 264.842064 252.826787 
L 272.316593 253.265615 
L 282.065979 253.604427 
L 295.715119 253.838469 
L 318.138706 253.971399 
L 340.887273 254.005017 
L 340.887273 254.005017 
" clip-path="url(#p1af9c525e6)" style="fill: none; stroke: #ff7f0e; stroke-width: 1.5; stroke-linecap: square"/>
   </g>
   <g id="line2d_3">
    <path d="M 16.232727 252.539027 
L 34.106601 251.884068 
L 49.055659 251.118054 
L 62.05484 250.231417 
L 73.429124 249.235703 
L 83.503489 248.137062 
L 92.602916 246.92923 
L 101.052383 245.586508 
L 108.851892 244.122315 
L 116.001441 242.557748 
L 122.826011 240.834026 
L 129.000622 239.052053 
L 134.850254 237.14217 
L 140.374906 235.115078 
L 145.899558 232.844468 
L 151.09923 230.458814 
L 155.973923 227.978677 
L 160.523636 225.428837 
L 165.07335 222.629291 
L 169.623063 219.555585 
L 173.847797 216.432516 
L 178.072531 213.02641 
L 181.972285 209.608951 
L 185.872039 205.906566 
L 189.771794 201.895499 
L 193.671548 197.550014 
L 197.246323 193.249103 
L 200.821097 188.620599 
L 204.395872 183.639552 
L 207.970647 178.279106 
L 210.895463 173.590968 
L 211.220442 173.698237 
L 214.795217 179.382904 
L 218.369992 184.665225 
L 221.944767 189.573679 
L 225.519541 194.134726 
L 229.419296 198.743043 
L 233.31905 202.996716 
L 237.218804 206.923036 
L 241.118559 210.547197 
L 245.343292 214.159317 
L 249.568026 217.471281 
L 253.79276 220.508032 
L 258.342473 223.496785 
L 262.892187 226.218954 
L 267.76688 228.866711 
L 272.641572 231.26226 
L 277.841245 233.566548 
L 283.365897 235.759717 
L 288.890549 237.717672 
L 294.74018 239.562416 
L 300.914791 241.283612 
L 307.739361 242.948545 
L 314.888911 244.459751 
L 322.688419 245.874005 
L 331.137887 247.170932 
L 340.237314 248.33757 
L 340.887273 248.412854 
L 340.887273 248.412854 
" clip-path="url(#p1af9c525e6)" style="fill: none; stroke: #2ca02c; stroke-width: 1.5; stroke-linecap: square"/>
   </g>
  </g>
 </g>
 <defs>
  <clipPath id="p1af9c525e6">
   <rect x="0" y="-0" width="357.12" height="266.112"/>
  </clipPath>
 </defs>
</svg>
